<svg xmlns="http://www.w3.org/2000/svg" viewBox="0 0 180 180" fill="none" shape-rendering="auto"><metadata xmlns:rdf="http://www.w3.org/1999/02/22-rdf-syntax-ns#" xmlns:xsi="http://www.w3.org/2001/XMLSchema-instance" xmlns:dc="http://purl.org/dc/elements/1.1/" xmlns:dcterms="http://purl.org/dc/terms/"><rdf:RDF><rdf:Description><dc:title>Bottts</dc:title><dc:creator>Pablo Stanley</dc:creator><dc:source xsi:type="dcterms:URI">https://bottts.com/</dc:source><dcterms:license xsi:type="dcterms:URI">https://bottts.com/</dcterms:license><dc:rights>Remix of "Bottts" (https://bottts.com/) by "Pablo Stanley", licensed under "Free for personal and commercial use" (https://bottts.com/)</dc:rights></rdf:Description></rdf:RDF></metadata><mask id="viewboxMask"><rect width="180" height="180" rx="0" ry="0" x="0" y="0" fill="#fff" /></mask><g mask="url(#viewboxMask)"><g transform="translate(0 66)"><mask id="sidesRound-a" style="mask-type:luminance" maskUnits="userSpaceOnUse" x="12" y="16" width="156" height="45"><g fill="#fff"><ellipse cx="150" cy="38.5" rx="18" ry="22.5"/><ellipse cx="18" cy="22.5" rx="18" ry="22.5" transform="matrix(-1 0 0 1 48 16)"/></g></mask><g mask="url(#sidesRound-a)"><path d="M0 0h180v76H0V0Z" fill="#f4511e"/><path d="M0 0h180v76H0V0Z" fill="#fff" fill-opacity=".3"/><path fill="#000" fill-opacity=".2" d="M20 0h140v76H20z"/></g></g><g transform="translate(41)"><g filter="url(#topGlowingBulb01-a)"><path fill-rule="evenodd" clip-rule="evenodd" d="M32 24A16 16 0 0 1 48 8h4a16 16 0 0 1 16 16v8a8 8 0 0 1-8 8H40a8 8 0 0 1-8-8v-8Z" fill="#fff" fill-opacity=".3"/></g><path d="M49 11.5c4.93 0 9.37 2.13 12.44 5.52" stroke="#fff" stroke-width="2" stroke-linecap="round"/><path d="m49.83 29-9-9L38 22.83l10 10V40h4v-7.03l10.14-10.14L59.31 20l-9 9h-.48Z" fill="#fff" fill-opacity=".8"/><rect x="22" y="40" width="56" height="12" rx="1" fill="#48494B"/><defs><filter id="topGlowingBulb01-a" x="24" y="0" width="52" height="48" filterUnits="userSpaceOnUse" color-interpolation-filters="sRGB"><feFlood flood-opacity="0" result="BackgroundImageFix"/><feColorMatrix in="SourceAlpha" values="0 0 0 0 0 0 0 0 0 0 0 0 0 0 0 0 0 0 127 0" result="hardAlpha"/><feOffset/><feGaussianBlur stdDeviation="4"/><feColorMatrix values="0 0 0 0 1 0 0 0 0 1 0 0 0 0 1 0 0 0 0.5 0"/><feBlend in2="BackgroundImageFix" result="effect1_dropShadow_617_621"/><feBlend in="SourceGraphic" in2="effect1_dropShadow_617_621" result="shape"/><feColorMatrix in="SourceAlpha" values="0 0 0 0 0 0 0 0 0 0 0 0 0 0 0 0 0 0 127 0" result="hardAlpha"/><feOffset/><feGaussianBlur stdDeviation="2"/><feComposite in2="hardAlpha" operator="arithmetic" k2="-1" k3="1"/><feColorMatrix values="0 0 0 0 1 0 0 0 0 1 0 0 0 0 1 0 0 0 0.5 0"/><feBlend in2="shape" result="effect2_innerShadow_617_621"/></filter></defs></g><g transform="translate(25 44)"><mask id="faceSquare01-a" style="mask-type:luminance" maskUnits="userSpaceOnUse" x="0" y="0" width="130" height="120"><rect width="130" height="120" rx="18" fill="#fff"/></mask><g mask="url(#faceSquare01-a)"><path d="M-2-2h134v124H-2V-2Z" fill="#f4511e"/><g transform="translate(-1 -1)"></g></g></g><g transform="translate(52 124)"><rect x="24" y="6" width="27" height="8" rx="4" fill="#000" fill-opacity=".8"/></g><g transform="translate(38 76)"><rect x="7" y="16" width="91" height="16" rx="4" fill="#000" fill-opacity=".8"/><mask id="eyesRobocop-a" style="mask-type:luminance" maskUnits="userSpaceOnUse" x="7" y="16" width="91" height="16"><rect x="7" y="16" width="91" height="16" rx="4" fill="#fff"/></mask><g mask="url(#eyesRobocop-a)" fill-rule="evenodd" clip-rule="evenodd" fill="#fff" fill-opacity=".8"><path d="M76 7h18L82 37H64L76 7ZM52 7h9L49 37h-9L52 7Z"/></g></g></g></svg>